# xmcd
#
# Track frame offsets:
#	150
#	12017
#	49968
#	87707
#
# Disc length: 1670 seconds
#
# Revision: 0
# Processed by: cddbd v1.4PL0 Copyright (c) Steve Scherf et al.
# Submitted via: dBpowerAMP V4.0
#
DISCID=2c068404
DTITLE=Lexos - Singal
DYEAR=1900
DGENRE=Big Band
TTITLE0=The key (radio edit)
TTITLE1=Original
TTITLE2=Vox remix
TTITLE3=on vox remix
EXTD=crap
EXTT0=
EXTT1=
EXTT2=
EXTT3=
PLAYORDER=
